# xmcd
#
# Track frame offsets:
#	150
#	15779
#	31568
#	49795
#	62376
#	80644
#	93574
#	106324
#	126822
#	139704
#	149532
#	163112
#	176936
#	196884
#
# Disc length: 2825 seconds
#
# Revision: 0
# Processed by: cddbd v1.5.1PL2 Copyright (c) Steve Scherf et al.
# Submitted via: dBpowerAMP V4.0
#
DISCID=b50b070e
DTITLE=Los Comodines De Durango - Viejas pero bonitas
DYEAR=2006
DGENRE=Vocal
TTITLE0=Tengos recuerdos de ti
TTITLE1=Ven linda morena
TTITLE2=cruz de dolor
TTITLE3=preso sin delito
TTITLE4=Durango durango
TTITLE5=llorando tu ausencia
TTITLE6=pancho nopales
TTITLE7=ojitos negros y chinos
TTITLE8=la pila de agua
TTITLE9=de esta sierra a la otra sierra
TTITLE10=la cosecha
TTITLE11=uan sombra
TTITLE12=indita mia
TTITLE13=angel barraza
EXTD=
EXTT0=
EXTT1=
EXTT2=
EXTT3=
EXTT4=
EXTT5=
EXTT6=
EXTT7=
EXTT8=
EXTT9=
EXTT10=
EXTT11=
EXTT12=
EXTT13=
PLAYORDER=
